<svg width="191" height="30" viewBox="0 0 191 30" fill="none" xmlns="http://www.w3.org/2000/svg">
    <g clip-path="url(#clip0_350_2459)">
        <mask id="mask0_350_2459" style="mask-type:luminance" maskUnits="userSpaceOnUse" x="0" y="0" width="110" height="30">
            <path d="M109.069 0H0V30H109.069V0Z" fill="white"/>
        </mask>
        <g mask="url(#mask0_350_2459)">
            <path d="M91.7562 13.5869L78.7543 0.585072C78.3794 0.210291 77.8709 -0.000244141 77.3408 -0.000244141C76.8106 -0.000244141 76.3022 0.210291 75.9272 0.585072L62.9254 13.5869C62.5505 13.9619 62.3398 14.4704 62.3398 15.0007C62.3398 15.5309 62.5505 16.0395 62.9254 16.4145L64.1482 17.6373L85.9861 9.73989L76.8223 29.9316C77.1612 30.0231 77.5183 30.0236 77.8575 29.9331C78.1967 29.8426 78.5061 29.6642 78.7543 29.4159L91.7562 16.4145C92.1311 16.0395 92.3417 15.5309 92.3417 15.0007C92.3417 14.4704 92.1311 13.9619 91.7562 13.5869Z" fill="#F05A28"/>
            <path d="M10.2841 9.23975V12.2539H6.82748V21.6511H3.45664V12.2539H0V9.23975H10.2841Z" fill="#F05A28"/>
            <path d="M18.7633 13.4954C18.7676 13.3305 18.7374 13.1665 18.6748 13.0139C18.6122 12.8612 18.5186 12.7233 18.3998 12.6088C18.2706 12.4883 18.1186 12.3948 17.9527 12.3339C17.7868 12.273 17.6104 12.2459 17.4339 12.2542H15.1282V14.7349H17.4335C17.61 14.7433 17.7864 14.7162 17.9523 14.6553C18.1182 14.5944 18.2702 14.5009 18.3994 14.3803C18.5181 14.2661 18.6117 14.1284 18.6744 13.9761C18.737 13.8237 18.7673 13.66 18.7633 13.4954ZM11.7598 9.24004H17.6104C18.2345 9.23326 18.8541 9.34461 19.4368 9.56822C19.9679 9.77163 20.4532 10.079 20.8642 10.4722C21.2597 10.8562 21.576 11.3141 21.795 11.8199C22.0225 12.3489 22.1372 12.9195 22.1317 13.4954C22.1496 14.08 22.0376 14.6614 21.804 15.1977C21.6199 15.6069 21.3715 15.984 21.0683 16.3148C20.7686 16.6514 20.4077 16.9281 20.0049 17.1301L22.5758 21.6514H19.0297L16.9012 17.7503H15.1282V21.651H11.7598V9.24004Z" fill="#F05A28"/>
            <path d="M29.875 18.992C30.1776 18.9929 30.4769 18.9294 30.753 18.8057C31.0305 18.6819 31.2805 18.5041 31.4886 18.2827C31.7046 18.0532 31.876 17.7856 31.9941 17.4934C32.12 17.1809 32.1832 16.8466 32.18 16.5097V9.23975H35.5488V16.5097C35.5558 17.2551 35.4109 17.9941 35.123 18.6817C34.8502 19.3339 34.4492 19.9247 33.9437 20.4189C33.4254 20.9198 32.814 21.3143 32.1442 21.5804C30.6843 22.1476 29.0649 22.1476 27.605 21.5804C26.9352 21.3143 26.3238 20.9198 25.8055 20.4189C25.3 19.9247 24.899 19.3339 24.6262 18.6817C24.3386 17.994 24.1937 17.255 24.2004 16.5097V9.23975H27.5684V16.5097C27.5614 17.1678 27.8091 17.8031 28.2597 18.2827C28.468 18.5042 28.7182 18.6819 28.9958 18.8057C29.2722 18.9298 29.572 18.9933 29.875 18.992Z" fill="#F05A28"/>
            <path d="M40.8283 15.4416C40.8237 15.9243 40.914 16.4032 41.0943 16.8511C41.2643 17.2726 41.5176 17.6556 41.839 17.977C42.1604 18.2984 42.5434 18.5517 42.965 18.7217C43.4128 18.9024 43.8919 18.993 44.3749 18.9881C44.859 18.9966 45.3404 18.9124 45.7929 18.74C46.1664 18.5956 46.5232 18.4113 46.8571 18.1902C47.1875 17.9659 47.4857 17.6975 47.7433 17.3923L49.6952 19.5204C49.3267 19.9951 48.8906 20.4132 48.4008 20.7615C47.8841 21.1099 47.3277 21.3954 46.7433 21.6119C45.9853 21.8874 45.1828 22.0198 44.3765 22.0023C43.4405 22.011 42.5122 21.833 41.6457 21.4789C40.8316 21.1467 40.0884 20.6622 39.4559 20.0515C38.8385 19.4542 38.3415 18.7439 37.9919 17.9592C37.6411 17.1662 37.46 16.3087 37.46 15.4416C37.46 14.5745 37.6411 13.7169 37.9919 12.9239C38.3415 12.1393 38.8385 11.429 39.4559 10.8316C40.0885 10.2211 40.8317 9.73663 41.6457 9.40424C42.5122 9.05037 43.4405 8.87259 44.3765 8.88127C45.1626 8.86393 45.9448 8.99628 46.6815 9.27126C47.2559 9.49172 47.8032 9.7773 48.3126 10.1224C48.802 10.4711 49.238 10.8892 49.607 11.3635L47.5676 13.4912C47.3257 13.1903 47.0457 12.9221 46.7347 12.6933C46.4237 12.4709 46.0874 12.2863 45.7327 12.1435C45.3017 11.9717 44.8408 11.8874 44.3769 11.8955C43.894 11.8905 43.4149 11.9808 42.967 12.1614C42.5454 12.3313 42.1624 12.5846 41.841 12.906C41.5195 13.2275 41.2663 13.6105 41.0963 14.0321C40.9154 14.4798 40.8244 14.9587 40.8283 15.4416Z" fill="#F05A28"/>
            <path d="M54.7471 21.044V18.4596L56.0773 16.9525L58.002 19.8675L61.1553 18.7288L58.2948 14.3816L62.7274 9.23975H58.8267L54.7471 14.027V9.23975H51.3799V21.6511H53.0708L54.7471 21.044Z" fill="#F05A28"/>
            <path d="M93.9395 9.23975H97.3078V21.6507H93.9395V9.23975Z" fill="#F05A28"/>
            <path d="M109.063 9.23975V12.2539H105.606V21.6507H102.237V12.2539H98.7803V9.23975H109.063Z" fill="#F05A28"/>
            <path d="M80.9362 12.6797L79.3604 13.5955H80.2038L81.5779 12.6797H80.9362Z" fill="#F05A28"/>
            <path d="M68.4892 21.367L72.3456 18.7997H70.3587L65.9395 21.367H68.4892Z" fill="#F05A28"/>
            <path d="M77.8824 15.1414L79.3569 14.1597H78.3899L76.7002 15.1414H77.8824Z" fill="#F05A28"/>
            <path d="M75.2388 15.9797L72.2998 17.6877H74.0403L76.6052 15.9797H75.2388Z" fill="#F05A28"/>
            <path d="M63.0347 23.0597L55.8604 27.228H59.6932L65.9558 23.0597H63.0347Z" fill="#F05A28"/>
            <path d="M83.9839 10.8997L81.4199 12.3893H82.001L84.2377 10.8997H83.9839Z" fill="#F05A28"/>
        </g>
    </g>
    <path d="M117.233 7.03693V23.7812H115.224V7.03693H117.233ZM131.606 13.8828H129.429C129.389 13.6011 129.308 13.3509 129.185 13.1321C129.063 12.91 128.905 12.7211 128.713 12.5653C128.521 12.4096 128.299 12.2902 128.047 12.2074C127.798 12.1245 127.528 12.0831 127.236 12.0831C126.709 12.0831 126.25 12.214 125.859 12.4759C125.468 12.7344 125.165 13.1122 124.949 13.6094C124.734 14.1032 124.626 14.7031 124.626 15.4091C124.626 16.1349 124.734 16.7448 124.949 17.2386C125.168 17.7325 125.473 18.1054 125.864 18.3572C126.255 18.6091 126.708 18.7351 127.222 18.7351C127.51 18.7351 127.777 18.697 128.022 18.6207C128.271 18.5445 128.491 18.4335 128.683 18.2876C128.875 18.1385 129.034 17.9579 129.16 17.7457C129.29 17.5336 129.379 17.2917 129.429 17.0199L131.606 17.0298C131.55 17.4972 131.409 17.9479 131.184 18.3821C130.962 18.813 130.662 19.1991 130.284 19.5405C129.909 19.8786 129.462 20.147 128.942 20.3459C128.425 20.5414 127.84 20.6392 127.187 20.6392C126.279 20.6392 125.467 20.4337 124.751 20.0227C124.038 19.6117 123.475 19.0168 123.06 18.2379C122.649 17.459 122.444 16.5161 122.444 15.4091C122.444 14.2988 122.653 13.3542 123.07 12.5753C123.488 11.7964 124.055 11.2031 124.771 10.7955C125.486 10.3845 126.292 10.179 127.187 10.179C127.777 10.179 128.324 10.2618 128.827 10.4276C129.334 10.5933 129.784 10.8352 130.175 11.1534C130.566 11.4683 130.884 11.8544 131.129 12.3118C131.378 12.7692 131.537 13.2929 131.606 13.8828ZM142.331 15.4091C142.331 16.5194 142.12 17.464 141.699 18.2429C141.282 19.0218 140.712 19.6167 139.989 20.0277C139.27 20.4354 138.461 20.6392 137.563 20.6392C136.658 20.6392 135.846 20.4337 135.127 20.0227C134.408 19.6117 133.839 19.0168 133.422 18.2379C133.004 17.459 132.795 16.5161 132.795 15.4091C132.795 14.2988 133.004 13.3542 133.422 12.5753C133.839 11.7964 134.408 11.2031 135.127 10.7955C135.846 10.3845 136.658 10.179 137.563 10.179C138.461 10.179 139.27 10.3845 139.989 10.7955C140.712 11.2031 141.282 11.7964 141.699 12.5753C142.12 13.3542 142.331 14.2988 142.331 15.4091ZM140.148 15.4091C140.148 14.6899 140.04 14.0833 139.825 13.5895C139.613 13.0956 139.313 12.7211 138.925 12.4659C138.537 12.2107 138.083 12.0831 137.563 12.0831C137.043 12.0831 136.588 12.2107 136.201 12.4659C135.813 12.7211 135.511 13.0956 135.296 13.5895C135.084 14.0833 134.978 14.6899 134.978 15.4091C134.978 16.1283 135.084 16.7348 135.296 17.2287C135.511 17.7225 135.813 18.0971 136.201 18.3523C136.588 18.6075 137.043 18.7351 137.563 18.7351C138.083 18.7351 138.537 18.6075 138.925 18.3523C139.313 18.0971 139.613 17.7225 139.825 17.2287C140.04 16.7348 140.148 16.1283 140.148 15.4091ZM152.266 10.3182V20.5H150.406L145.977 14.0916H145.902V20.5H143.749V10.3182H145.639L150.033 16.7216H150.123V10.3182H152.266ZM162.385 10.3182V20.5H160.525L156.095 14.0916H156.021V20.5H153.868V10.3182H155.757L160.152 16.7216H160.242V10.3182H162.385ZM163.987 20.5V10.3182H170.848V12.093H166.14V14.5192H170.495V16.294H166.14V18.7251H170.868V20.5H163.987ZM181.367 13.8828H179.19C179.15 13.6011 179.069 13.3509 178.946 13.1321C178.823 12.91 178.666 12.7211 178.474 12.5653C178.281 12.4096 178.059 12.2902 177.807 12.2074C177.559 12.1245 177.289 12.0831 176.997 12.0831C176.47 12.0831 176.011 12.214 175.62 12.4759C175.229 12.7344 174.926 13.1122 174.71 13.6094C174.495 14.1032 174.387 14.7031 174.387 15.4091C174.387 16.1349 174.495 16.7448 174.71 17.2386C174.929 17.7325 175.234 18.1054 175.625 18.3572C176.016 18.6091 176.468 18.7351 176.982 18.7351C177.27 18.7351 177.537 18.697 177.783 18.6207C178.031 18.5445 178.252 18.4335 178.444 18.2876C178.636 18.1385 178.795 17.9579 178.921 17.7457C179.05 17.5336 179.14 17.2917 179.19 17.0199L181.367 17.0298C181.311 17.4972 181.17 17.9479 180.944 18.3821C180.722 18.813 180.422 19.1991 180.045 19.5405C179.67 19.8786 179.223 20.147 178.702 20.3459C178.185 20.5414 177.6 20.6392 176.947 20.6392C176.039 20.6392 175.227 20.4337 174.511 20.0227C173.799 19.6117 173.235 19.0168 172.821 18.2379C172.41 17.459 172.204 16.5161 172.204 15.4091C172.204 14.2988 172.413 13.3542 172.831 12.5753C173.248 11.7964 173.815 11.2031 174.531 10.7955C175.247 10.3845 176.052 10.179 176.947 10.179C177.537 10.179 178.084 10.2618 178.588 10.4276C179.095 10.5933 179.544 10.8352 179.935 11.1534C180.326 11.4683 180.645 11.8544 180.89 12.3118C181.138 12.7692 181.297 13.2929 181.367 13.8828ZM182.347 12.093V10.3182H190.709V12.093H187.592V20.5H185.464V12.093H182.347Z" fill="white"/>
    <defs>
        <clipPath id="clip0_350_2459">
            <rect width="109.069" height="30" fill="white"/>
        </clipPath>
    </defs>
</svg>
